<svg width="16" height="16" viewBox="0 0 16 16" fill="none" xmlns="http://www.w3.org/2000/svg">
<g id="Icon/Outline/all-done">
<path id="Mask" fill-rule="evenodd" clip-rule="evenodd" d="M11.0774 4.14191C10.7881 3.91391 10.3694 3.96591 10.1421 4.25591L5.43876 10.2612L3.1861 7.46324C2.9541 7.17724 2.53543 7.13058 2.24876 7.36191C1.96143 7.59324 1.91676 8.01324 2.14676 8.29924L4.9261 11.7512C5.05343 11.9086 5.2441 11.9999 5.4461 11.9999H5.45076C5.65343 11.9986 5.84543 11.9046 5.97076 11.7439L11.1914 5.07724C11.4188 4.78791 11.3681 4.36858 11.0774 4.14191ZM14.4108 4.14191C14.1208 3.91391 13.7028 3.96591 13.4754 4.25591L8.7721 10.2612L8.36943 9.76191L7.5261 10.8399L8.25943 11.7512C8.38676 11.9086 8.57743 11.9999 8.77943 11.9999H8.7841C8.98676 11.9986 9.17876 11.9046 9.3041 11.7439L14.5248 5.07724C14.7521 4.78791 14.7014 4.36858 14.4108 4.14191ZM6.65323 7.62964L5.80857 8.70697L5.48057 8.29964C5.2499 8.01297 5.29457 7.59297 5.5819 7.36164C5.86923 7.13097 6.28857 7.17697 6.51923 7.46364L6.65323 7.62964Z" fill="#231F20"/>
<mask id="mask0_1_492" style="mask-type:alpha" maskUnits="userSpaceOnUse" x="1" y="3" width="14" height="9">
<path id="Mask_2" fill-rule="evenodd" clip-rule="evenodd" d="M11.0774 4.14191C10.7881 3.91391 10.3694 3.96591 10.1421 4.25591L5.43876 10.2612L3.1861 7.46324C2.9541 7.17724 2.53543 7.13058 2.24876 7.36191C1.96143 7.59324 1.91676 8.01324 2.14676 8.29924L4.9261 11.7512C5.05343 11.9086 5.2441 11.9999 5.4461 11.9999H5.45076C5.65343 11.9986 5.84543 11.9046 5.97076 11.7439L11.1914 5.07724C11.4188 4.78791 11.3681 4.36858 11.0774 4.14191ZM14.4108 4.14191C14.1208 3.91391 13.7028 3.96591 13.4754 4.25591L8.7721 10.2612L8.36943 9.76191L7.5261 10.8399L8.25943 11.7512C8.38676 11.9086 8.57743 11.9999 8.77943 11.9999H8.7841C8.98676 11.9986 9.17876 11.9046 9.3041 11.7439L14.5248 5.07724C14.7521 4.78791 14.7014 4.36858 14.4108 4.14191ZM6.65323 7.62964L5.80857 8.70697L5.48057 8.29964C5.2499 8.01297 5.29457 7.59297 5.5819 7.36164C5.86923 7.13097 6.28857 7.17697 6.51923 7.46364L6.65323 7.62964Z" fill="white"/>
</mask>
<g mask="url(#mask0_1_492)">
<g id="&#240;&#159;&#142;&#168; Color">
<rect id="Base" width="16" height="16" fill="#B7BDCB"/>
</g>
</g>
</g>
</svg>
